#
#
#

mtllib Sphere.mtl


#
# pSphere1 Mesh
#
g pSphere1 Mesh


#
# pSphere1 Mesh_initialShadingGroup
#
usemtl pSphere1 Mesh_initialShadingGroup

v 0.270598 -0.923880 -0.270598
v 0.000000 -0.923880 -0.382683
v 0.000000 -0.707107 -0.707107
v 0.500000 -0.707107 -0.500000
v -0.270598 -0.923880 -0.270598
v -0.500000 -0.707107 -0.500000
v -0.382683 -0.923880 0.000000
v -0.707107 -0.707107 0.000000
v -0.270598 -0.923880 0.270598
v -0.500000 -0.707107 0.500000
v 0.000000 -0.923880 0.382683
v 0.000000 -0.707107 0.707107
v 0.270598 -0.923880 0.270598
v 0.500000 -0.707107 0.500000
v 0.382683 -0.923880 0.000000
v 0.707107 -0.707107 0.000000
v 0.000000 -0.382683 -0.923879
v 0.653281 -0.382683 -0.653281
v -0.653281 -0.382683 -0.653281
v -0.923879 -0.382683 0.000000
v -0.653281 -0.382683 0.653281
v 0.000000 -0.382683 0.923879
v 0.653281 -0.382683 0.653281
v 0.923880 -0.382683 0.000000
v 0.000000 0.000000 -1.000000
v 0.707107 0.000000 -0.707107
v -0.707107 0.000000 -0.707107
v -1.000000 0.000000 0.000000
v -0.707107 0.000000 0.707107
v 0.000000 0.000000 1.000000
v 0.707107 0.000000 0.707107
v 1.000000 0.000000 0.000000
v 0.000000 0.382683 -0.923879
v 0.653281 0.382683 -0.653281
v -0.653281 0.382683 -0.653281
v -0.923879 0.382683 0.000000
v -0.653281 0.382683 0.653281
v 0.000000 0.382683 0.923879
v 0.653281 0.382683 0.653281
v 0.923880 0.382683 0.000000
v 0.000000 0.707107 -0.707107
v 0.500000 0.707107 -0.500000
v -0.500000 0.707107 -0.500000
v -0.707107 0.707107 0.000000
v -0.500000 0.707107 0.500000
v 0.000000 0.707107 0.707107
v 0.500000 0.707107 0.500000
v 0.707107 0.707107 0.000000
v 0.000000 0.923880 -0.382683
v 0.270598 0.923880 -0.270598
v -0.270598 0.923880 -0.270598
v -0.382683 0.923880 0.000000
v -0.270598 0.923880 0.270598
v 0.000000 0.923880 0.382683
v 0.270598 0.923880 0.270598
v 0.382683 0.923880 0.000000
v 0.000000 -1.000000 0.000000
v 0.000000 1.000000 0.000000
v 0.270598 -0.923880 -0.270598
v 0.000000 -0.923880 -0.382683
v 0.000000 -0.707107 -0.707107
v 0.500000 -0.707107 -0.500000
v -0.270598 -0.923880 -0.270598
v -0.500000 -0.707107 -0.500000
v -0.382683 -0.923880 0.000000
v -0.707107 -0.707107 0.000000
v -0.270598 -0.923880 0.270598
v -0.500000 -0.707107 0.500000
v 0.000000 -0.923880 0.382683
v 0.000000 -0.707107 0.707107
v 0.270598 -0.923880 0.270598
v 0.500000 -0.707107 0.500000
v 0.382683 -0.923880 0.000000
v 0.707107 -0.707107 0.000000
v 0.000000 -0.382683 -0.923879
v 0.653281 -0.382683 -0.653281
v -0.653281 -0.382683 -0.653281
v -0.923879 -0.382683 0.000000
v -0.653281 -0.382683 0.653281
v 0.000000 -0.382683 0.923879
v 0.653281 -0.382683 0.653281
v 0.923880 -0.382683 0.000000
v 0.000000 0.000000 -1.000000
v 0.707107 0.000000 -0.707107
v -0.707107 0.000000 -0.707107
v -1.000000 0.000000 0.000000
v -0.707107 0.000000 0.707107
v 0.000000 0.000000 1.000000
v 0.707107 0.000000 0.707107
v 1.000000 0.000000 0.000000
v 0.000000 0.382683 -0.923879
v 0.653281 0.382683 -0.653281
v -0.653281 0.382683 -0.653281
v -0.923879 0.382683 0.000000
v -0.653281 0.382683 0.653281
v 0.000000 0.382683 0.923879
v 0.653281 0.382683 0.653281
v 0.923880 0.382683 0.000000
v 0.000000 0.707107 -0.707107
v 0.500000 0.707107 -0.500000
v -0.500000 0.707107 -0.500000
v -0.707107 0.707107 0.000000
v -0.500000 0.707107 0.500000
v 0.000000 0.707107 0.707107
v 0.500000 0.707107 0.500000
v 0.707107 0.707107 0.000000
v 0.000000 0.923880 -0.382683
v 0.270598 0.923880 -0.270598
v -0.270598 0.923880 -0.270598
v -0.382683 0.923880 0.000000
v -0.270598 0.923880 0.270598
v 0.000000 0.923880 0.382683
v 0.270598 0.923880 0.270598
v 0.382683 0.923880 0.000000
v 0.000000 -1.000000 0.000000
v 0.000000 1.000000 0.000000
vn 0.327474 -0.907858 -0.261827
vn 0.046420 -0.907858 -0.416699
vn 0.511100 -0.709116 -0.485728
vn 0.017941 -0.709115 -0.704864
vn -0.261827 -0.907859 -0.327474
vn -0.485728 -0.709115 -0.511100
vn -0.416699 -0.907858 -0.046419
vn -0.704864 -0.709115 -0.017941
vn -0.327474 -0.907858 0.261827
vn -0.511100 -0.709115 0.485728
vn -0.704864 -0.709116 -0.017941
vn -0.327474 -0.907858 0.261827
vn -0.046420 -0.907858 0.416699
vn -0.017941 -0.709115 0.704864
vn 0.261827 -0.907859 0.327474
vn 0.485728 -0.709115 0.511100
vn 0.416699 -0.907858 0.046419
vn 0.704864 -0.709116 0.017941
vn 0.704864 -0.709116 0.017941
vn 0.511100 -0.709116 -0.485728
vn 0.017941 -0.709116 -0.704864
vn 0.659220 -0.384534 -0.646191
vn 0.017941 -0.709116 -0.704864
vn 0.009213 -0.384534 -0.923065
vn 0.017941 -0.709116 -0.704864
vn -0.646191 -0.384534 -0.659220
vn -0.923065 -0.384534 -0.009213
vn -0.511100 -0.709115 0.485728
vn -0.511100 -0.709115 0.485728
vn -0.659220 -0.384534 0.646191
vn -0.511100 -0.709115 0.485728
vn -0.017941 -0.709116 0.704864
vn -0.017941 -0.709116 0.704864
vn -0.009213 -0.384534 0.923065
vn -0.017941 -0.709116 0.704864
vn 0.646190 -0.384535 0.659220
vn 0.704864 -0.709116 0.017941
vn 0.704864 -0.709116 0.017941
vn 0.923065 -0.384534 0.009213
vn 0.646190 -0.384535 0.659220
vn 0.704864 -0.709116 0.017941
vn 0.511100 -0.709116 -0.485728
vn 0.659220 -0.384534 -0.646191
vn 0.603748 0.000000 -0.797175
vn 0.009213 -0.384534 -0.923065
vn -0.136774 0.000000 -0.990602
vn 0.009213 -0.384534 -0.923065
vn -0.646191 -0.384534 -0.659220
vn -0.797175 0.000000 -0.603748
vn -0.646191 -0.384534 -0.659220
vn -0.923065 -0.384534 -0.009213
vn -0.990602 -0.000000 0.136774
vn -0.923065 -0.384534 -0.009213
vn -0.659220 -0.384535 0.646191
vn -0.603748 -0.000000 0.797175
vn -0.009213 -0.384534 0.923065
vn 0.136774 0.000000 0.990602
vn -0.009213 -0.384534 0.923065
vn 0.646191 -0.384535 0.659220
vn 0.797175 0.000000 0.603748
vn 0.923065 -0.384534 0.009213
vn 0.923065 -0.384534 0.009213
vn 0.990602 0.000000 -0.136774
vn 0.659220 -0.384534 -0.646191
vn 0.603748 -0.000000 -0.797175
vn 0.990602 -0.000000 -0.136774
vn 0.603748 0.000000 -0.797175
vn -0.136774 -0.000000 -0.990602
vn 0.009213 0.384534 -0.923065
vn 0.603748 -0.000000 -0.797175
vn 0.659220 0.384534 -0.646191
vn -0.136774 0.000000 -0.990602
vn -0.797175 0.000000 -0.603748
vn -0.646191 0.384534 -0.659220
vn -0.136774 0.000000 -0.990602
vn -0.923065 0.384534 -0.009213
vn -0.797175 0.000000 -0.603748
vn -0.646191 0.384534 -0.659220
vn -0.990602 -0.000000 0.136774
vn -0.603748 0.000000 0.797175
vn -0.659220 0.384535 0.646191
vn -0.990602 0.000000 0.136774
vn -0.923065 0.384534 -0.009213
vn -0.603748 0.000000 0.797175
vn 0.136774 -0.000000 0.990602
vn -0.009213 0.384534 0.923065
vn -0.603748 -0.000000 0.797175
vn 0.136774 0.000000 0.990602
vn 0.797175 0.000000 0.603748
vn 0.646190 0.384535 0.659220
vn 0.136774 0.000000 0.990602
vn 0.797175 0.000000 0.603748
vn 0.990602 0.000000 -0.136774
vn 0.923065 0.384534 0.009213
vn 0.646190 0.384535 0.659220
vn 0.990602 0.000000 -0.136774
vn 0.603748 0.000000 -0.797175
vn 0.990602 -0.000000 -0.136774
vn 0.659220 0.384534 -0.646191
vn 0.009213 0.384534 -0.923065
vn 0.017941 0.709116 -0.704864
vn 0.511100 0.709116 -0.485728
vn 0.009213 0.384534 -0.923065
vn -0.485728 0.709115 -0.511100
vn -0.646191 0.384534 -0.659220
vn -0.704864 0.709115 -0.017941
vn -0.511100 0.709115 0.485728
vn -0.009213 0.384534 0.923065
vn -0.017941 0.709116 0.704864
vn -0.009213 0.384534 0.923065
vn 0.485728 0.709115 0.511100
vn 0.704864 0.709116 0.017941
vn 0.659220 0.384534 -0.646191
vn 0.017941 0.709116 -0.704864
vn 0.046420 0.907858 -0.416699
vn 0.327474 0.907858 -0.261827
vn -0.261827 0.907858 -0.327474
vn 0.017941 0.709116 -0.704864
vn -0.485728 0.709115 -0.511100
vn -0.704864 0.709115 -0.017941
vn -0.416699 0.907859 -0.046420
vn -0.704864 0.709116 -0.017941
vn -0.511100 0.709115 0.485728
vn -0.327474 0.907859 0.261827
vn -0.704864 0.709116 -0.017941
vn -0.511100 0.709115 0.485728
vn -0.017941 0.709116 0.704864
vn -0.046420 0.907858 0.416699
vn -0.511100 0.709115 0.485728
vn 0.261827 0.907858 0.327474
vn -0.017941 0.709116 0.704864
vn 0.485728 0.709115 0.511100
vn 0.416699 0.907859 0.046420
vn 0.704864 0.709116 0.017941
vn 0.046420 -0.907858 -0.416699
vn -0.000000 -1.000000 0.000000
vn -0.261827 -0.907858 -0.327474
vn -0.416699 -0.907859 -0.046419
vn -0.327474 -0.907858 0.261827
vn -0.000000 -1.000000 0.000000
vn -0.046420 -0.907858 0.416699
vn 0.261827 -0.907858 0.327474
vn 0.416699 -0.907859 0.046419
vn 0.000000 -1.000000 0.000000
vn 0.327474 -0.907858 -0.261827
vn 0.000000 -1.000000 -0.000000
vn 0.046420 0.907858 -0.416699
vn -0.000000 1.000000 -0.000000
vn -0.261827 0.907858 -0.327474
vn -0.261827 0.907858 -0.327474
vn -0.416699 0.907859 -0.046420
vn -0.000000 1.000000 -0.000000
vn -0.416699 0.907859 -0.046420
vn -0.046420 0.907858 0.416699
vn 0.000000 1.000000 -0.000000
vn 0.261827 0.907858 0.327474
vn 0.261827 0.907858 0.327474
vn 0.416699 0.907859 0.046420
vn 0.000000 1.000000 -0.000000
vn 0.416699 0.907859 0.046420
vn 0.000000 1.000000 -0.000000
vt 0.000000 0.125000
vt 0.125000 0.125000
vt 0.000000 0.250000
vt 0.125000 0.250000
vt 0.250000 0.125000
vt 0.250000 0.250000
vt 0.375000 0.125000
vt 0.375000 0.250000
vt 0.500000 0.125000
vt 0.500000 0.250000
vt 0.625000 0.125000
vt 0.625000 0.250000
vt 0.750000 0.125000
vt 0.750000 0.250000
vt 0.875000 0.125000
vt 0.875000 0.250000
vt 1.000000 0.125000
vt 1.000000 0.250000
vt 0.000000 0.375000
vt 0.125000 0.375000
vt 0.250000 0.375000
vt 0.375000 0.375000
vt 0.500000 0.375000
vt 0.625000 0.375000
vt 0.750000 0.375000
vt 0.875000 0.375000
vt 1.000000 0.375000
vt 0.000000 0.500000
vt 0.125000 0.500000
vt 0.250000 0.500000
vt 0.375000 0.500000
vt 0.500000 0.500000
vt 0.625000 0.500000
vt 0.750000 0.500000
vt 0.875000 0.500000
vt 1.000000 0.500000
vt 0.125000 0.625000
vt 0.000000 0.625000
vt 0.250000 0.625000
vt 0.375000 0.625000
vt 0.500000 0.625000
vt 0.625000 0.625000
vt 0.750000 0.625000
vt 0.875000 0.625000
vt 1.000000 0.625000
vt 0.125000 0.750000
vt 0.000000 0.750000
vt 0.250000 0.750000
vt 0.375000 0.750000
vt 0.500000 0.750000
vt 0.625000 0.750000
vt 0.750000 0.750000
vt 0.875000 0.750000
vt 1.000000 0.750000
vt 0.125000 0.875000
vt 0.000000 0.875000
vt 0.250000 0.875000
vt 0.375000 0.875000
vt 0.500000 0.875000
vt 0.625000 0.875000
vt 0.750000 0.875000
vt 0.875000 0.875000
vt 1.000000 0.875000
vt 0.062500 0.000000
vt 0.187500 0.000000
vt 0.312500 0.000000
vt 0.437500 0.000000
vt 0.562500 0.000000
vt 0.687500 0.000000
vt 0.812500 0.000000
vt 0.937500 0.000000
vt 0.062500 1.000000
vt 0.187500 1.000000
vt 0.312500 1.000000
vt 0.437500 1.000000
vt 0.562500 1.000000
vt 0.687500 1.000000
vt 0.812500 1.000000
vt 0.937500 1.000000
f 1/1/1 2/2/2 4/3/3
f 2/2/2 3/4/4 4/3/3
f 2/2/2 5/5/5 3/4/4
f 5/5/5 6/6/6 3/4/4
f 5/5/5 7/7/7 6/6/6
f 7/7/7 8/8/8 6/6/6
f 7/7/7 9/9/9 8/8/8
f 9/9/9 10/10/10 8/8/11
f 9/9/12 11/11/13 10/10/10
f 11/11/13 12/12/14 10/10/10
f 11/11/13 13/13/15 12/12/14
f 13/13/15 14/14/16 12/12/14
f 13/13/15 15/15/17 14/14/16
f 15/15/17 16/16/18 14/14/16
f 15/15/17 1/17/1 16/16/18
f 1/17/1 4/18/3 16/16/19
f 4/3/20 3/4/21 18/19/22
f 3/4/23 17/20/24 18/19/22
f 3/4/25 6/6/6 17/20/24
f 6/6/6 19/21/26 17/20/24
f 6/6/6 8/8/11 19/21/26
f 8/8/8 20/22/27 19/21/26
f 8/8/8 10/10/28 20/22/27
f 10/10/29 21/23/30 20/22/27
f 10/10/31 12/12/32 21/23/30
f 12/12/33 22/24/34 21/23/30
f 12/12/35 14/14/16 22/24/34
f 14/14/16 23/25/36 22/24/34
f 14/14/16 16/16/37 23/25/36
f 16/16/38 24/26/39 23/25/40
f 16/16/41 4/18/42 24/26/39
f 4/18/3 18/27/22 24/26/39
f 18/19/43 17/20/24 26/28/44
f 17/20/45 25/29/46 26/28/44
f 17/20/47 19/21/48 25/29/46
f 19/21/48 27/30/49 25/29/46
f 19/21/50 20/22/27 27/30/49
f 20/22/51 28/31/52 27/30/49
f 20/22/53 21/23/54 28/31/52
f 21/23/30 29/32/55 28/31/52
f 21/23/30 22/24/34 29/32/55
f 22/24/56 30/33/57 29/32/55
f 22/24/58 23/25/36 30/33/57
f 23/25/59 31/34/60 30/33/57
f 23/25/36 24/26/61 31/34/60
f 24/26/62 32/35/63 31/34/60
f 24/26/39 18/27/43 32/35/63
f 18/27/64 26/36/65 32/35/66
f 26/28/67 25/29/68 33/37/69
f 26/28/70 33/37/69 34/38/71
f 25/29/72 27/30/73 35/39/74
f 25/29/75 35/39/74 33/37/69
f 27/30/73 28/31/52 36/40/76
f 27/30/77 36/40/76 35/39/78
f 28/31/79 29/32/80 37/41/81
f 28/31/82 37/41/81 36/40/83
f 29/32/84 30/33/85 38/42/86
f 29/32/87 38/42/86 37/41/81
f 30/33/88 31/34/89 39/43/90
f 30/33/91 39/43/90 38/42/86
f 31/34/92 32/35/93 40/44/94
f 31/34/92 40/44/94 39/43/95
f 32/35/96 26/36/97 34/45/71
f 32/35/98 34/45/71 40/44/94
f 34/38/99 33/37/100 41/46/101
f 34/38/99 41/46/101 42/47/102
f 33/37/103 35/39/78 43/48/104
f 33/37/103 43/48/104 41/46/101
f 35/39/105 36/40/76 44/49/106
f 35/39/74 44/49/106 43/48/104
f 36/40/83 37/41/81 45/50/107
f 36/40/83 45/50/107 44/49/106
f 37/41/81 38/42/108 46/51/109
f 37/41/81 46/51/109 45/50/107
f 38/42/110 39/43/95 47/52/111
f 38/42/110 47/52/111 46/51/109
f 39/43/90 40/44/94 48/53/112
f 39/43/95 48/53/112 47/52/111
f 40/44/94 34/45/113 42/54/102
f 40/44/94 42/54/102 48/53/112
f 42/47/102 41/46/114 49/55/115
f 42/47/102 49/55/115 50/56/116
f 41/46/101 43/48/104 51/57/117
f 41/46/118 51/57/117 49/55/115
f 43/48/119 44/49/120 52/58/121
f 43/48/119 52/58/121 51/57/117
f 44/49/122 45/50/123 53/59/124
f 44/49/125 53/59/124 52/58/121
f 45/50/126 46/51/127 54/60/128
f 45/50/129 54/60/128 53/59/124
f 46/51/109 47/52/111 55/61/130
f 46/51/131 55/61/130 54/60/128
f 47/52/132 48/53/112 56/62/133
f 47/52/132 56/62/133 55/61/130
f 48/53/134 42/54/102 50/63/116
f 48/53/134 50/63/116 56/62/133
f 2/2/135 1/1/1 57/64/136
f 5/5/137 2/2/2 57/65/136
f 7/7/138 5/5/137 57/66/136
f 9/9/139 7/7/138 57/67/140
f 11/11/141 9/9/9 57/68/140
f 13/13/142 11/11/13 57/69/140
f 15/15/143 13/13/142 57/70/144
f 1/17/145 15/15/143 57/71/146
f 50/56/116 49/55/147 58/72/148
f 49/55/115 51/57/149 58/73/148
f 51/57/150 52/58/151 58/74/152
f 52/58/153 53/59/124 58/75/148
f 53/59/124 54/60/154 58/76/155
f 54/60/128 55/61/156 58/77/148
f 55/61/157 56/62/158 58/78/159
f 56/62/160 50/63/116 58/79/161
f 59/1/1 60/2/2 62/3/3
f 60/2/2 61/4/4 62/3/3
f 60/2/2 63/5/5 61/4/4
f 63/5/5 64/6/6 61/4/4
f 63/5/5 65/7/7 64/6/6
f 65/7/7 66/8/8 64/6/6
f 65/7/7 67/9/9 66/8/8
f 67/9/9 68/10/10 66/8/11
f 67/9/12 69/11/13 68/10/10
f 69/11/13 70/12/14 68/10/10
f 69/11/13 71/13/15 70/12/14
f 71/13/15 72/14/16 70/12/14
f 71/13/15 73/15/17 72/14/16
f 73/15/17 74/16/18 72/14/16
f 73/15/17 59/17/1 74/16/18
f 59/17/1 62/18/3 74/16/19
f 62/3/20 61/4/21 76/19/22
f 61/4/23 75/20/24 76/19/22
f 61/4/25 64/6/6 75/20/24
f 64/6/6 77/21/26 75/20/24
f 64/6/6 66/8/11 77/21/26
f 66/8/8 78/22/27 77/21/26
f 66/8/8 68/10/28 78/22/27
f 68/10/29 79/23/30 78/22/27
f 68/10/31 70/12/32 79/23/30
f 70/12/33 80/24/34 79/23/30
f 70/12/35 72/14/16 80/24/34
f 72/14/16 81/25/36 80/24/34
f 72/14/16 74/16/37 81/25/36
f 74/16/38 82/26/39 81/25/40
f 74/16/41 62/18/42 82/26/39
f 62/18/3 76/27/22 82/26/39
f 76/19/43 75/20/24 84/28/44
f 75/20/45 83/29/46 84/28/44
f 75/20/47 77/21/48 83/29/46
f 77/21/48 85/30/49 83/29/46
f 77/21/50 78/22/27 85/30/49
f 78/22/51 86/31/52 85/30/49
f 78/22/53 79/23/54 86/31/52
f 79/23/30 87/32/55 86/31/52
f 79/23/30 80/24/34 87/32/55
f 80/24/56 88/33/57 87/32/55
f 80/24/58 81/25/36 88/33/57
f 81/25/59 89/34/60 88/33/57
f 81/25/36 82/26/61 89/34/60
f 82/26/62 90/35/63 89/34/60
f 82/26/39 76/27/43 90/35/63
f 76/27/64 84/36/65 90/35/66
f 84/28/67 83/29/68 91/37/69
f 84/28/70 91/37/69 92/38/71
f 83/29/72 85/30/73 93/39/74
f 83/29/75 93/39/74 91/37/69
f 85/30/73 86/31/52 94/40/76
f 85/30/77 94/40/76 93/39/78
f 86/31/79 87/32/80 95/41/81
f 86/31/82 95/41/81 94/40/83
f 87/32/84 88/33/85 96/42/86
f 87/32/87 96/42/86 95/41/81
f 88/33/88 89/34/89 97/43/90
f 88/33/91 97/43/90 96/42/86
f 89/34/92 90/35/93 98/44/94
f 89/34/92 98/44/94 97/43/95
f 90/35/96 84/36/97 92/45/71
f 90/35/98 92/45/71 98/44/94
f 92/38/99 91/37/100 99/46/101
f 92/38/99 99/46/101 100/47/102
f 91/37/103 93/39/78 101/48/104
f 91/37/103 101/48/104 99/46/101
f 93/39/105 94/40/76 102/49/106
f 93/39/74 102/49/106 101/48/104
f 94/40/83 95/41/81 103/50/107
f 94/40/83 103/50/107 102/49/106
f 95/41/81 96/42/108 104/51/109
f 95/41/81 104/51/109 103/50/107
f 96/42/110 97/43/95 105/52/111
f 96/42/110 105/52/111 104/51/109
f 97/43/90 98/44/94 106/53/112
f 97/43/95 106/53/112 105/52/111
f 98/44/94 92/45/113 100/54/102
f 98/44/94 100/54/102 106/53/112
f 100/47/102 99/46/114 107/55/115
f 100/47/102 107/55/115 108/56/116
f 99/46/101 101/48/104 109/57/117
f 99/46/118 109/57/117 107/55/115
f 101/48/119 102/49/120 110/58/121
f 101/48/119 110/58/121 109/57/117
f 102/49/122 103/50/123 111/59/124
f 102/49/125 111/59/124 110/58/121
f 103/50/126 104/51/127 112/60/128
f 103/50/129 112/60/128 111/59/124
f 104/51/109 105/52/111 113/61/130
f 104/51/131 113/61/130 112/60/128
f 105/52/132 106/53/112 114/62/133
f 105/52/132 114/62/133 113/61/130
f 106/53/134 100/54/102 108/63/116
f 106/53/134 108/63/116 114/62/133
f 60/2/135 59/1/1 115/64/136
f 63/5/137 60/2/2 115/65/136
f 65/7/138 63/5/137 115/66/136
f 67/9/139 65/7/138 115/67/140
f 69/11/141 67/9/9 115/68/140
f 71/13/142 69/11/13 115/69/140
f 73/15/143 71/13/142 115/70/144
f 59/17/145 73/15/143 115/71/146
f 108/56/116 107/55/147 116/72/148
f 107/55/115 109/57/149 116/73/148
f 109/57/150 110/58/151 116/74/152
f 110/58/153 111/59/124 116/75/148
f 111/59/124 112/60/154 116/76/155
f 112/60/128 113/61/156 116/77/148
f 113/61/157 114/62/158 116/78/159
f 114/62/160 108/63/116 116/79/161
